<!--?xml version="1.0" encoding="utf-8"?-->
<!-- Generator: Adobe Illustrator 18.1.1, SVG Export Plug-In . SVG Version: 6.00 Build 0)  -->

<svg version="1.1" id="_x32_" xmlns="http://www.w3.org/2000/svg" xmlns:xlink="http://www.w3.org/1999/xlink" x="0px" y="0px" viewBox="0 0 512 512" style="width: 256px; height: 256px; opacity: 1;" xml:space="preserve">
<style type="text/css">
	.st0{fill:#4B4B4B;}
</style>
<g>
	<path class="st0" d="M404.83,53.174H107.17L0,228.28v147.905h49.674c-7.973,8.758-12.854,20.478-12.846,33.233
		c-0.008,13.602,5.544,26.029,14.468,34.939c8.902,8.925,21.323,14.477,34.94,14.47c13.6,0.008,26.029-5.544,34.924-14.47
		c8.925-8.91,14.484-21.338,14.469-34.939c0.015-12.755-4.874-24.475-12.84-33.233h266.422
		c-7.966,8.758-12.854,20.478-12.847,33.233c-0.008,13.602,5.544,26.029,14.469,34.939c8.91,8.925,21.331,14.477,34.939,14.47
		c13.601,0.008,26.029-5.544,34.932-14.47c8.918-8.91,14.476-21.338,14.469-34.939c0.007-12.755-4.882-24.475-12.847-33.233H512
		v-11.674V228.28L404.83,53.174z M120.261,76.53h271.471l93.257,152.344H27.019L120.261,76.53z M110.239,419.561
		c-1.972,4.653-5.285,8.651-9.458,11.468c-4.166,2.81-9.115,4.432-14.545,4.44c-3.632-0.008-7.029-0.724-10.144-2.041
		c-4.66-1.965-8.658-5.293-11.468-9.451c-2.818-4.173-4.44-9.123-4.447-14.561c0-3.624,0.73-7.02,2.048-10.136
		c1.964-4.652,5.285-8.658,9.45-11.468c4.174-2.81,9.123-4.44,14.561-4.44c3.624,0,7.021,0.732,10.128,2.041
		c4.661,1.965,8.666,5.292,11.469,9.45c2.817,4.174,4.447,9.116,4.447,14.553C112.28,413.051,111.549,416.447,110.239,419.561z
		 M449.775,419.561c-1.964,4.653-5.285,8.651-9.458,11.468c-4.158,2.81-9.115,4.432-14.545,4.44
		c-3.632-0.008-7.029-0.724-10.144-2.041c-4.66-1.965-8.658-5.293-11.469-9.451c-2.81-4.173-4.432-9.123-4.447-14.561
		c0.008-3.624,0.738-7.02,2.048-10.136c1.972-4.652,5.293-8.658,9.451-11.468c4.173-2.81,9.123-4.44,14.56-4.44
		c3.624,0,7.021,0.732,10.128,2.041c4.661,1.965,8.667,5.292,11.469,9.45c2.818,4.174,4.447,9.116,4.447,14.553
		C451.816,413.051,451.085,416.447,449.775,419.561z M488.644,352.836H23.348V241.447h465.296V352.836z" style="fill: rgb(75, 75, 75);"></path>
	<path class="st0" d="M216.473,88.676c-18.155,0-32.883,12.047-32.883,26.905c0,14.85,14.728,26.897,32.883,26.897
		c18.17,0,32.89-12.047,32.89-26.897C249.363,100.723,234.643,88.676,216.473,88.676z M216.473,131.703
		c-11.979,0-22.1-7.387-22.1-16.122c0-8.743,10.121-16.138,22.1-16.138c11.986,0,22.115,7.395,22.115,16.138
		C238.588,124.316,228.459,131.703,216.473,131.703z" style="fill: rgb(75, 75, 75);"></path>
	<path class="st0" d="M295.52,141.976c18.17,0,32.883-12.048,32.883-26.905c0-14.866-14.713-26.913-32.883-26.913
		c-18.155,0-32.883,12.047-32.883,26.913C262.637,129.928,277.365,141.976,295.52,141.976z" style="fill: rgb(75, 75, 75);"></path>
	<path class="st0" d="M210.106,154.785c-19.274,0-34.901,12.786-34.901,28.55c0,15.763,15.626,28.542,34.901,28.542
		c19.267,0,34.893-12.779,34.893-28.542C245,167.571,229.373,154.785,210.106,154.785z" style="fill: rgb(75, 75, 75);"></path>
	<path class="st0" d="M301.901,154.785c-19.274,0-34.901,12.786-34.901,28.55c0,15.763,15.627,28.542,34.901,28.542
		c19.266,0,34.893-12.779,34.893-28.542C336.794,167.571,321.168,154.785,301.901,154.785z M301.901,201.109
		c-13.083,0-24.125-8.134-24.125-17.774c0-9.634,11.042-17.767,24.125-17.767c13.068,0,24.11,8.133,24.11,17.767
		C326.011,192.975,314.969,201.109,301.901,201.109z" style="fill: rgb(75, 75, 75);"></path>
</g>
</svg>
