<!--?xml version="1.0" encoding="utf-8"?-->
<!-- Generator: Adobe Illustrator 18.0.0, SVG Export Plug-In . SVG Version: 6.00 Build 0)  -->

<svg version="1.1" id="_x32_" xmlns="http://www.w3.org/2000/svg" xmlns:xlink="http://www.w3.org/1999/xlink" x="0px" y="0px" viewBox="0 0 512 512" style="width: 256px; height: 256px; opacity: 1;" xml:space="preserve">
<style type="text/css">
	.st0{fill:#4B4B4B;}
</style>
<g>
	<path class="st0" d="M497.374,174.922c-11.018-4.844-23.99-1.002-30.432,9.164c-10.598,16.719-29.297,43.326-56.584,71.914
		c-45.77,47.951-87.051,28.207-106.496-60.332c-7.19-32.744-14.295-74.322-18.279-98.709c-1.928-11.804-12.131-20.445-24.092-20.445
		c-3.02,0-7.941,0-10.936,0c-11.988,0-22.213,8.66-24.146,20.49c-3.986,24.392-11.086,65.939-18.272,98.664
		C188.692,284.207,147.411,303.951,101.642,256c-27.289-28.588-45.986-55.195-56.584-71.914
		c-6.444-10.166-19.414-14.008-30.432-9.164c-10.291,4.525-16.176,15.476-14.27,26.554L37.12,415.162
		c2.02,11.742,12.203,20.324,24.119,20.324h114.762c44,0,116,0,160,0h114.76c11.916,0,22.1-8.582,24.119-20.324l36.764-213.686
		C513.55,190.398,507.665,179.447,497.374,174.922z" style="fill: rgb(75, 75, 75);"></path>
</g>
</svg>
